# Blender v2.79 (sub 0) OBJ File: ''
# www.blender.org
o Turkey_Leg
v 0.359891 0.513459 -0.351437
v 0.225801 0.404638 -0.271352
v 0.170927 0.496114 -0.489162
v 0.128959 0.392031 -0.348865
v 0.299039 0.633198 -0.162191
v 0.188192 0.478640 -0.154392
v 0.072466 0.689855 -0.182956
v 0.068106 0.511770 -0.159618
v 0.033937 0.601287 -0.369532
v 0.031497 0.458242 -0.279809
v 0.449147 0.765455 -0.536300
v 0.232851 0.737297 -0.709423
v 0.365148 0.930739 -0.275071
v 0.096938 1.004733 -0.286744
v 0.015174 0.885179 -0.555188
v 0.247824 0.966910 -0.723781
v 0.389092 1.007213 -0.634117
v 0.343890 1.122462 -0.479618
v 0.174685 1.153388 -0.473797
v 0.115313 1.057251 -0.624698
v 0.065283 -0.000144 -0.045566
v -0.006555 0.000620 -0.002500
v 0.004593 -0.001654 -0.091162
v 0.033476 0.047790 0.032444
v -0.025337 0.083299 0.013474
v -0.025578 0.032582 -0.028840
v 0.258618 1.101016 -0.616996
v 0.110347 0.351602 -0.300265
v 0.210628 0.353934 -0.244150
v 0.173020 0.427936 -0.127190
v 0.053841 0.465539 -0.147210
v 0.016325 0.407538 -0.252607
v 0.094814 0.327833 -0.240636
v 0.143970 0.352869 -0.216340
v 0.127134 0.385999 -0.163980
v 0.073375 0.400830 -0.166320
v 0.051183 0.357474 -0.209722
v 0.080796 0.294434 -0.202837
v 0.109737 0.298202 -0.179671
v 0.098498 0.320318 -0.144718
v 0.062610 0.330219 -0.146280
v 0.051669 0.314222 -0.182199
v 0.067079 0.187547 -0.116386
v 0.045835 0.184782 -0.133390
v 0.058829 0.203782 -0.090728
v 0.032486 0.211049 -0.091875
v 0.024455 0.199307 -0.118241
v 0.016980 0.076095 -0.093197
v 0.051357 0.080570 -0.065681
v 0.038007 0.106841 -0.024162
v -0.004622 0.118601 -0.026017
v -0.017617 0.099599 -0.068683
vt 0.662800 0.262400
vt 0.606900 0.133100
vt 0.439800 0.241000
vt 0.440000 0.125500
vt 0.800100 0.275600
vt 0.797000 0.135200
vt 0.964100 0.307000
vt 0.925800 0.148000
vt 0.144100 0.204200
vt 0.278100 0.204200
vt 0.203200 0.105100
vt 0.300200 0.104500
vt 0.642200 0.450600
vt 0.418800 0.423400
vt 0.811100 0.455300
vt 0.951800 0.442500
vt 0.048800 0.407400
vt 0.249400 0.383400
vt 0.426400 0.551100
vt 0.583200 0.537500
vt 0.716600 0.658600
vt 0.971500 0.628300
vt 0.244400 0.548200
vt 0.063300 0.599600
vt 0.281900 0.666100
vt 0.360400 0.612000
vt 0.259900 0.568900
vt 0.376400 0.689800
vt 0.414000 0.628500
vt 0.159000 0.662600
vt 0.174400 0.636800
vt 0.101700 0.680900
vt 0.247600 0.678900
vt 0.538200 0.680100
vt 0.620200 0.790300
vt 0.441400 0.733700
vt 0.436400 0.082800
vt 0.603900 0.094800
vt 0.783800 0.105400
vt 0.903600 0.105500
vt 0.301700 0.069200
vt 0.181100 0.054800
vt 0.417300 0.040800
vt 0.591700 0.046000
vt 0.737900 0.032900
vt 0.885500 0.016700
vt 0.295400 0.041000
vt 0.217300 0.031200
vt 0.248000 0.950300
vt 0.297000 0.949400
vt 0.214100 0.904900
vt 0.271600 0.904800
vt 0.346600 0.935800
vt 0.321700 0.887100
vt 0.125800 0.964100
vt 0.118500 0.910300
vt 0.044800 0.966600
vt 0.064500 0.912000
vt 0.161500 0.946000
vt 0.153600 0.909400
vt 0.237200 0.826900
vt 0.198700 0.813500
vt 0.298700 0.817400
vt 0.072100 0.811300
vt 0.111800 0.810000
vt 0.147700 0.809200
vt 0.223300 0.734800
vt 0.275300 0.747500
vt 0.322600 0.754900
vt 0.113600 0.720900
vt 0.048800 0.723300
vt 0.152600 0.720300
vt 0.013800 0.666500
vn 0.3938 -0.8079 -0.4385
vn 0.4530 -0.7755 -0.4398
vn 0.7026 -0.4772 0.5279
vn -0.0665 0.0978 0.9930
vn -0.0073 0.1301 0.9915
vn -0.9825 0.0477 0.1803
vn -0.9621 0.1565 0.2233
vn -0.7574 -0.3953 -0.5198
vn -0.6919 -0.3751 -0.6169
vn 0.5405 -0.6137 -0.5755
vn 0.4835 -0.6547 -0.5810
vn 0.9344 -0.0755 0.3482
vn 0.0540 0.3437 0.9375
vn -0.0086 0.3136 0.9495
vn -0.9625 0.1495 0.2266
vn -0.9826 0.0517 0.1784
vn -0.6927 -0.3812 -0.6122
vn -0.7572 -0.3918 -0.5226
vn 0.6294 -0.0893 -0.7719
vn 0.5638 -0.1856 -0.8048
vn 0.9552 0.2589 0.1434
vn 0.9595 0.2703 0.0791
vn 0.1741 0.7344 0.6560
vn 0.1561 0.7287 0.6668
vn -0.8580 0.5126 0.0330
vn -0.8702 0.4918 0.0291
vn -0.5759 0.0049 -0.8175
vn -0.6034 -0.0105 -0.7974
vn 0.0051 -0.9996 0.0263
vn 0.3456 -0.7301 0.5895
vn -0.4374 -0.2654 0.8592
vn -0.9057 -0.2690 0.3276
vn -0.8220 -0.5625 -0.0889
vn 0.3148 0.5756 -0.7547
vn 0.4914 0.7609 -0.4238
vn 0.1656 0.9535 -0.2517
vn -0.2379 0.8589 -0.4536
vn -0.1491 0.6233 -0.7677
vn 0.4633 -0.7604 -0.4551
vn 0.4253 -0.5234 -0.7383
vn 0.9307 -0.0881 0.3550
vn 0.0010 0.4725 0.8813
vn 0.0272 0.2513 0.9675
vn -0.9291 0.3469 0.1285
vn -0.9324 0.3283 0.1512
vn -0.6525 -0.1973 -0.7317
vn -0.6069 -0.4811 -0.6326
vn 0.1993 -0.9270 -0.3176
vn 0.2080 -0.8602 0.4656
vn 0.2519 -0.7792 0.5740
vn -0.2603 -0.3449 0.9018
vn -0.1819 -0.5285 0.8292
vn -0.8694 -0.2312 0.4367
vn -0.6039 -0.3879 0.6963
vn -0.6032 -0.7178 -0.3476
vn -0.6939 -0.5883 -0.4153
vn 0.5676 -0.7100 -0.4168
vn 0.5121 -0.6761 -0.5298
vn 0.8648 -0.2493 0.4358
vn 0.0321 0.2683 0.9628
vn -0.9370 0.1800 0.2993
vn -0.9582 0.2032 0.2013
vn -0.6941 -0.3920 -0.6038
vn 0.5598 -0.5633 -0.6077
vn 0.5597 -0.5634 -0.6077
vn 0.9150 -0.1355 0.3799
vn 0.0704 0.3995 0.9140
vn -0.9401 0.3061 0.1500
vn -0.6638 -0.2375 -0.7092
vn 0.6013 -0.4127 -0.6842
vn 0.9527 0.0040 0.3038
vn 0.1144 0.5455 0.8302
vn 0.1143 0.5455 0.8302
vn -0.9019 0.4234 0.0861
vn -0.6264 -0.1186 -0.7704
vn 0.5984 -0.1161 -0.7927
vn 0.6293 -0.0840 -0.7726
vn 0.9445 0.1867 0.2704
vn 0.9617 0.2099 0.1764
vn 0.1842 0.6828 0.7070
vn 0.1556 0.6773 0.7190
vn -0.9943 0.0709 -0.0794
vn -0.8500 0.5262 0.0245
vn -0.9176 -0.1169 -0.3800
vn -0.5470 0.0653 -0.8346
s off
f 1/1/1 2/2/1 3/3/1
f 4/4/2 3/3/2 2/2/2
f 1/1/3 5/5/3 2/2/3
f 2/2/3 5/5/3 6/6/3
f 5/5/4 7/7/4 6/6/4
f 6/6/5 7/7/5 8/8/5
f 7/9/6 9/10/6 8/11/6
f 8/11/7 9/10/7 10/12/7
f 3/3/8 4/4/8 9/10/8
f 10/12/9 9/10/9 4/4/9
f 11/13/10 1/1/10 12/14/10
f 3/3/11 12/14/11 1/1/11
f 11/13/12 13/15/12 1/1/12
f 1/1/12 13/15/12 5/5/12
f 13/15/13 14/16/13 5/5/13
f 5/5/14 14/16/14 7/7/14
f 14/17/15 15/18/15 7/9/15
f 7/9/16 15/18/16 9/10/16
f 12/14/17 3/3/17 15/18/17
f 9/10/18 15/18/18 3/3/18
f 12/14/19 16/19/19 11/13/19
f 11/13/20 16/19/20 17/20/20
f 13/15/21 11/13/21 18/21/21
f 11/13/22 17/20/22 18/21/22
f 14/16/23 13/15/23 19/22/23
f 13/15/24 18/21/24 19/22/24
f 15/18/25 14/17/25 20/23/25
f 14/17/26 19/24/26 20/23/26
f 15/18/27 20/23/27 12/14/27
f 12/14/28 20/23/28 16/19/28
f 21/25/29 22/26/29 23/27/29
f 24/28/30 22/26/30 21/25/30
f 25/29/31 22/26/31 24/28/31
f 26/30/32 22/31/32 25/32/32
f 23/33/33 22/31/33 26/30/33
f 16/19/34 27/34/34 17/20/34
f 17/20/35 27/34/35 18/21/35
f 18/21/36 27/34/36 19/35/36
f 19/35/37 27/34/37 20/36/37
f 20/36/38 27/34/38 16/19/38
f 4/4/39 2/2/39 28/37/39
f 2/2/40 29/38/40 28/37/40
f 6/6/41 30/39/41 2/2/41
f 2/2/41 30/39/41 29/38/41
f 30/39/42 6/6/42 31/40/42
f 8/8/43 31/40/43 6/6/43
f 10/12/44 32/41/44 8/11/44
f 8/11/45 32/41/45 31/42/45
f 10/12/46 4/4/46 32/41/46
f 4/4/47 28/37/47 32/41/47
f 28/37/48 29/38/48 33/43/48
f 29/38/49 34/44/49 33/43/49
f 29/38/50 30/39/50 34/44/50
f 30/39/50 35/45/50 34/44/50
f 31/40/51 36/46/51 30/39/51
f 30/39/52 36/46/52 35/45/52
f 32/41/53 37/47/53 31/42/53
f 31/42/54 37/47/54 36/48/54
f 32/41/55 28/37/55 37/47/55
f 28/37/56 33/43/56 37/47/56
f 33/49/57 34/50/57 38/51/57
f 34/50/58 39/52/58 38/51/58
f 35/53/59 40/54/59 34/50/59
f 34/50/59 40/54/59 39/52/59
f 36/55/60 41/56/60 35/57/60
f 35/57/60 41/56/60 40/58/60
f 37/59/61 42/60/61 36/55/61
f 36/55/62 42/60/62 41/56/62
f 33/49/63 38/51/63 37/59/63
f 37/59/63 38/51/63 42/60/63
f 39/52/64 43/61/64 38/51/64
f 38/51/65 43/61/65 44/62/65
f 40/54/66 45/63/66 39/52/66
f 39/52/66 45/63/66 43/61/66
f 40/58/67 41/56/67 45/64/67
f 41/56/67 46/65/67 45/64/67
f 41/56/68 42/60/68 46/65/68
f 42/60/68 47/66/68 46/65/68
f 38/51/69 44/62/69 42/60/69
f 42/60/69 44/62/69 47/66/69
f 48/67/70 44/62/70 49/68/70
f 43/61/70 49/68/70 44/62/70
f 50/69/71 49/68/71 45/63/71
f 45/63/71 49/68/71 43/61/71
f 51/70/72 50/71/72 46/65/72
f 46/65/73 50/71/73 45/64/73
f 52/72/74 51/70/74 47/66/74
f 47/66/74 51/70/74 46/65/74
f 52/72/75 47/66/75 48/67/75
f 44/62/75 48/67/75 47/66/75
f 23/33/76 48/67/76 21/25/76
f 49/68/77 21/25/77 48/67/77
f 24/28/78 21/25/78 50/69/78
f 50/69/79 21/25/79 49/68/79
f 25/32/80 24/73/80 51/70/80
f 51/70/81 24/73/81 50/71/81
f 26/30/82 25/32/82 52/72/82
f 52/72/83 25/32/83 51/70/83
f 26/30/84 52/72/84 23/33/84
f 48/67/85 23/33/85 52/72/85
